<?xml version="1.0" encoding="UTF-8" standalone="no"?>
<!-- Created with Inkscape (http://www.inkscape.org/) -->

<svg
   xmlns:dc="http://purl.org/dc/elements/1.1/"
   xmlns:cc="http://creativecommons.org/ns#"
   xmlns:rdf="http://www.w3.org/1999/02/22-rdf-syntax-ns#"
   xmlns:svg="http://www.w3.org/2000/svg"
   xmlns="http://www.w3.org/2000/svg"
   xmlns:sodipodi="http://sodipodi.sourceforge.net/DTD/sodipodi-0.dtd"
   xmlns:inkscape="http://www.inkscape.org/namespaces/inkscape"
   version="1.2"
   width="800.23663"
   height="636.75122"
   id="svg2"
   style="enable-background:new"
   inkscape:version="0.48.0 r9654"
   sodipodi:docname="sfondoZS.svg">
  <sodipodi:namedview
     pagecolor="#ffffff"
     bordercolor="#666666"
     borderopacity="1"
     objecttolerance="10"
     gridtolerance="10"
     guidetolerance="10"
     inkscape:pageopacity="0"
     inkscape:pageshadow="2"
     inkscape:window-width="1202"
     inkscape:window-height="689"
     id="namedview38"
     showgrid="false"
     fit-margin-top="0"
     fit-margin-left="0"
     fit-margin-right="0"
     fit-margin-bottom="0"
     inkscape:zoom="0.6576178"
     inkscape:cx="449.69164"
     inkscape:cy="358.15333"
     inkscape:window-x="0"
     inkscape:window-y="0"
     inkscape:window-maximized="0"
     inkscape:current-layer="svg2" />
  <defs
     id="defs4" />
  <metadata
     id="metadata7">
    <rdf:RDF>
      <cc:Work
         rdf:about="">
        <dc:format>image/svg+xml</dc:format>
        <dc:type
           rdf:resource="http://purl.org/dc/dcmitype/StillImage" />
        <dc:title />
      </cc:Work>
    </rdf:RDF>
  </metadata>
  <g
     transform="matrix(9.6616672,0,0,9.6616672,-3835.755,-322.36258)"
     id="layer3"
     style="display:inline">
    <g
       transform="matrix(0.97954465,0,0,0.85863298,20.301005,10.998309)"
       id="g4591"
       style="font-size:20.73797798px;font-style:normal;font-variant:normal;font-weight:bold;font-stretch:normal;line-height:160.00000238%;letter-spacing:0.49636126px;word-spacing:0px;fill:#ffffff;fill-opacity:1;stroke:#000790;stroke-width:0.456;stroke-miterlimit:4;stroke-opacity:1;display:inline;font-family:Zurich;-inkscape-font-specification:Zurich Bold" />
    <g
       transform="matrix(2.2449516,-0.38332255,0.38332255,2.2449516,-63.117552,-758.90165)"
       id="g4045"
       style="opacity:0.90262176;fill:#ffffff;fill-opacity:1;stroke:#387bc8;stroke-width:0.17563562;stroke-miterlimit:4;stroke-opacity:1;stroke-dasharray:none;display:inline">
      <path
         d="m 153.25491,380.2648 6.40788,0 0,7.85917 -6.40788,0 z"
         id="path4047"
         style="fill:#ffffff;fill-opacity:1;fill-rule:nonzero;stroke:#387bc8;stroke-width:0.17563562;stroke-linecap:round;stroke-linejoin:miter;stroke-miterlimit:4;stroke-opacity:1;stroke-dasharray:none;stroke-dashoffset:0"
         inkscape:connector-curvature="0" />
      <path
         d="m 151.0761,388.6417 20.98946,0 c 0,0 2.96258,0.11833 2.63457,3.98147 l -5.68283,0 0,0.47901 5.58145,0 c -0.7292,1.39904 -1.62162,1.26285 -1.62162,1.26285 l -20.11562,0 0,6.5121 -1.78541,0 c 0,0 -4.43792,-1.35999 -4.44176,-5.79053 -0.004,-4.43053 4.44176,-6.4449 4.44176,-6.4449 z"
         id="path4049"
         style="fill:#ffffff;fill-opacity:1;stroke:#387bc8;stroke-width:0.17563562;stroke-linecap:butt;stroke-linejoin:miter;stroke-miterlimit:4;stroke-opacity:1;stroke-dasharray:none"
         inkscape:connector-curvature="0" />
      <path
         d="m 457.91677,304.65726 a 5.95104,5.95104 0 1 1 -11.90208,0 5.95104,5.95104 0 1 1 11.90208,0 z"
         transform="matrix(0.14529691,0,0,0.14529691,103.56581,345.29141)"
         id="path4051"
         style="fill:#ffffff;fill-opacity:1;fill-rule:nonzero;stroke:#387bc8;stroke-width:1.20880485;stroke-linecap:round;stroke-linejoin:miter;stroke-miterlimit:4;stroke-opacity:1;stroke-dasharray:none;stroke-dashoffset:0"
         inkscape:connector-curvature="0" />
      <path
         d="m 153.42909,394.75692 6.0194,0 0,6.12021 -6.0194,0 z"
         id="path4053"
         style="fill:#ffffff;fill-opacity:1;fill-rule:nonzero;stroke:#387bc8;stroke-width:0.17563562;stroke-linecap:round;stroke-linejoin:miter;stroke-miterlimit:4;stroke-opacity:1;stroke-dasharray:none;stroke-dashoffset:0"
         inkscape:connector-curvature="0" />
      <path
         d="m 146.20901,394.32149 -6.36794,0 c -1.25818,-0.31418 -1.39349,-1.3064 -1.39349,-1.3064 l 5.41656,0 0,-0.39192 -5.50366,0 c 0,0 -0.94061,-3.29077 2.26443,-3.98147 l 9.39942,0 c 0,0 -3.47741,1.6546 -3.81532,5.67979 z"
         id="path4055"
         style="fill:#ffffff;fill-opacity:1;stroke:#387bc8;stroke-width:0.17563562;stroke-linecap:butt;stroke-linejoin:miter;stroke-miterlimit:4;stroke-opacity:1;stroke-dasharray:none"
         inkscape:connector-curvature="0" />
      <path
         d="m 457.91677,304.65726 a 5.95104,5.95104 0 1 1 -11.90208,0 5.95104,5.95104 0 1 1 11.90208,0 z"
         transform="matrix(0.14529691,0,0,0.14529691,77.987384,345.29141)"
         id="path4057"
         style="fill:#ffffff;fill-opacity:1;fill-rule:nonzero;stroke:#387bc8;stroke-width:1.20880485;stroke-linecap:round;stroke-linejoin:miter;stroke-miterlimit:4;stroke-opacity:1;stroke-dasharray:none;stroke-dashoffset:0"
         inkscape:connector-curvature="0" />
      <path
         d="m 159.97596,394.77893 0.022,6.60418 -8.67289,0 c 0,0 -4.6413,1.4901 -4.90877,5.79356 l 14.52819,0 c 0,0 4.9802,-0.41688 5.06286,-5.94765 0.0827,-5.53078 -5.2209,-6.43517 -5.2209,-6.43517 z"
         id="path4059"
         style="fill:#ffffff;fill-opacity:1;stroke:#387bc8;stroke-width:0.17563562;stroke-linecap:butt;stroke-linejoin:miter;stroke-miterlimit:4;stroke-opacity:1;stroke-dasharray:none"
         inkscape:connector-curvature="0" />
    </g>
    <flowRoot
       id="flowRoot4140"
       xml:space="preserve"
       style="font-size:40px;font-style:normal;font-variant:normal;font-weight:bold;font-stretch:normal;line-height:160.00000238%;letter-spacing:0px;word-spacing:0px;fill:#000000;fill-opacity:1;stroke:none;font-family:Univers Extended;-inkscape-font-specification:Univers Extended Bold"><flowRegion
         id="flowRegion4142"><rect
           width="35.038467"
           height="47.330971"
           x="503.70218"
           y="41.486088"
           id="rect4144" /></flowRegion><flowPara
         id="flowPara4146">dsfsd</flowPara></flowRoot>  </g>
  <g
     transform="translate(-397.28418,537.44292)"
     id="layer2"
     style="display:none">
    <g
       id="g5044"
       style="display:inline;enable-background:new">
      <rect
         width="6.671268"
         height="1.8570578"
         ry="0.36180446"
         x="539.66382"
         y="91.26889"
         id="rect4829"
         style="opacity:0.07547171;fill:#000679;fill-opacity:1;fill-rule:nonzero;stroke:none" />
      <rect
         width="6.671268"
         height="1.8570578"
         ry="0.36180446"
         x="539.66382"
         y="39.30806"
         id="rect4831"
         style="opacity:0.07547171;fill:#000679;fill-opacity:1;fill-rule:nonzero;stroke:none" />
      <rect
         width="6.671268"
         height="1.8570578"
         ry="0.36180446"
         x="62.886414"
         y="-584.68817"
         transform="matrix(0,1,-1,0,0,0)"
         id="rect4833"
         style="opacity:0.07547171;fill:#000679;fill-opacity:1;fill-rule:nonzero;stroke:none" />
      <rect
         width="6.671268"
         height="1.8570578"
         ry="0.36180446"
         x="62.886414"
         y="-503.15625"
         transform="matrix(0,1,-1,0,0,0)"
         id="rect4864"
         style="opacity:0.07547171;fill:#000679;fill-opacity:1;fill-rule:nonzero;stroke:none" />
      <g
         id="g4910">
        <rect
           width="6.671268"
           height="1.8570578"
           ry="0.36180446"
           x="62.886414"
           y="-543.00104"
           transform="matrix(0,1,-1,0,0,0)"
           id="rect4908"
           style="opacity:0.07547171;fill:#000679;fill-opacity:1;fill-rule:nonzero;stroke:none" />
      </g>
      <g
         transform="translate(1.8570578,0)"
         id="g4915">
        <rect
           width="6.671268"
           height="1.8570578"
           ry="0.36180446"
           x="62.886414"
           y="-543.00104"
           transform="matrix(0,1,-1,0,0,0)"
           id="rect4917"
           style="opacity:0.07547171;fill:#000679;fill-opacity:1;fill-rule:nonzero;stroke:none" />
      </g>
    </g>
    <g
       transform="translate(-104.70063,0.101834)"
       id="g5054"
       style="display:inline;enable-background:new">
      <rect
         width="6.671268"
         height="1.8570578"
         ry="0.36180446"
         x="539.66382"
         y="91.26889"
         id="rect5056"
         style="opacity:0.07547171;fill:#000679;fill-opacity:1;fill-rule:nonzero;stroke:none" />
      <rect
         width="6.671268"
         height="1.8570578"
         ry="0.36180446"
         x="539.66382"
         y="39.30806"
         id="rect5058"
         style="opacity:0.07547171;fill:#000679;fill-opacity:1;fill-rule:nonzero;stroke:none" />
      <rect
         width="6.671268"
         height="1.8570578"
         ry="0.36180446"
         x="62.886414"
         y="-584.68817"
         transform="matrix(0,1,-1,0,0,0)"
         id="rect5060"
         style="opacity:0.07547171;fill:#000679;fill-opacity:1;fill-rule:nonzero;stroke:none" />
      <rect
         width="6.671268"
         height="1.8570578"
         ry="0.36180446"
         x="62.886414"
         y="-503.15625"
         transform="matrix(0,1,-1,0,0,0)"
         id="rect5062"
         style="opacity:0.07547171;fill:#000679;fill-opacity:1;fill-rule:nonzero;stroke:none" />
      <g
         id="g5064">
        <rect
           width="6.671268"
           height="1.8570578"
           ry="0.36180446"
           x="62.886414"
           y="-543.00104"
           transform="matrix(0,1,-1,0,0,0)"
           id="rect5066"
           style="opacity:0.07547171;fill:#000679;fill-opacity:1;fill-rule:nonzero;stroke:none" />
      </g>
      <g
         transform="translate(1.8570578,0)"
         id="g5068">
        <rect
           width="6.671268"
           height="1.8570578"
           ry="0.36180446"
           x="62.886414"
           y="-543.00104"
           transform="matrix(0,1,-1,0,0,0)"
           id="rect5070"
           style="opacity:0.07547171;fill:#000679;fill-opacity:1;fill-rule:nonzero;stroke:none" />
      </g>
    </g>
  </g>
</svg>
